<svg width="37" height="37" viewBox="0 0 37 37" fill="none" xmlns="http://www.w3.org/2000/svg">
<g clip-path="url(#clip0_1221_28539)">
<path d="M18.4997 8.79199C19.2096 8.79199 19.7851 9.36416 19.7851 10.07V18.9122L22.7326 15.9821C23.2347 15.4831 24.0485 15.4831 24.5505 15.9821C25.0525 16.4812 25.0525 17.2903 24.5505 17.7893L19.4086 22.9012C19.1676 23.1409 18.8406 23.2755 18.4997 23.2755C18.1587 23.2755 17.8317 23.1409 17.5907 22.9012L12.4488 17.7893C11.9468 17.2903 11.9468 16.4812 12.4488 15.9821C12.9508 15.4831 13.7647 15.4831 14.2667 15.9821L17.2142 18.9122V10.07C17.2142 9.36416 17.7897 8.79199 18.4997 8.79199Z" fill="white"/>
<path d="M10.3584 27.1095C10.3584 26.4037 10.9339 25.8315 11.6439 25.8315H25.3556C26.0656 25.8315 26.6411 26.4037 26.6411 27.1095C26.6411 27.8153 26.0656 28.3875 25.3556 28.3875H11.6439C10.9339 28.3875 10.3584 27.8153 10.3584 27.1095Z" fill="white"/>
<path fill-rule="evenodd" clip-rule="evenodd" d="M18.402 0.271973C14.4455 0.271956 11.3449 0.271939 8.92563 0.595297C6.4494 0.926272 4.49544 1.61695 2.96176 3.14166C1.42808 4.66637 0.733343 6.6089 0.400421 9.07066C0.0751612 11.4758 0.0751784 14.5583 0.0751956 18.4916V18.6872C0.0751784 22.6206 0.0751612 25.703 0.400421 28.1082C0.733343 30.5699 1.42808 32.5125 2.96176 34.0372C4.49544 35.5619 6.4494 36.2525 8.92563 36.5836C11.3449 36.9068 14.4455 36.9068 18.402 36.9068H18.5988C22.5553 36.9068 25.6559 36.9068 28.0751 36.5836C30.5513 36.2525 32.5054 35.5619 34.0391 34.0372C35.5727 32.5125 36.2674 30.5699 36.6004 28.1082C36.9256 25.703 36.9256 22.6206 36.9256 18.6872V18.4916C36.9256 14.5583 36.9256 11.4758 36.6004 9.07066C36.2674 6.6089 35.5727 4.66637 34.0391 3.14166C32.5054 1.61695 30.5513 0.926272 28.0751 0.595297C25.6559 0.271939 22.5553 0.271956 18.5988 0.271973H18.402ZM4.7797 4.94897C5.75607 3.9783 7.07706 3.42129 9.26821 3.12842C11.4963 2.8306 14.4242 2.82789 18.5004 2.82789C22.5765 2.82789 25.5044 2.8306 27.7325 3.12842C29.9237 3.42129 31.2446 3.9783 32.2211 4.94897C33.1975 5.91962 33.7578 7.23289 34.0523 9.41123C34.3519 11.6263 34.3546 14.537 34.3546 18.5894C34.3546 22.6417 34.3519 25.5524 34.0523 27.7676C33.7578 29.9459 33.1975 31.2591 32.2211 32.2298C31.2446 33.2006 29.9237 33.7576 27.7325 34.0503C25.5044 34.3482 22.5765 34.3509 18.5004 34.3509C14.4242 34.3509 11.4963 34.3482 9.26821 34.0503C7.07706 33.7576 5.75607 33.2006 4.7797 32.2298C3.80332 31.2591 3.24304 29.9459 2.94844 27.7676C2.64888 25.5524 2.64615 22.6417 2.64615 18.5894C2.64615 14.537 2.64888 11.6263 2.94844 9.41123C3.24304 7.23289 3.80332 5.91962 4.7797 4.94897Z" fill="white"/>
</g>
<defs>
<clipPath id="clip0_1221_28539">
<rect width="37" height="37" fill="white"/>
</clipPath>
</defs>
</svg>
