<svg width="128" height="64" viewBox="0 0 128 64" fill="none" xmlns="http://www.w3.org/2000/svg">
<path d="M3.91524 41.8022H0V53.4147H3.91524V41.8022Z" fill="#BC2330"/>
<path d="M9.65518 48.9354H14.5657V46.1153H9.65518V44.7548H15.2459V41.8022H5.8064V53.4147H15.4613V50.4619H9.65518V48.9354Z" fill="#BC2330"/>
<path d="M20.8859 41.8022H16.9707V53.4147H26.1284V50.3787H20.8859V41.8022Z" fill="#BC2330"/>
<path d="M25.249 44.8377H28.6497V53.4147H32.565V44.8377H35.9658V41.8022H25.249V44.8377Z" fill="#BC2330"/>
<path d="M45.4466 47.2433C45.065 46.9893 44.6475 46.785 44.1941 46.6299C43.7405 46.475 43.2841 46.3533 42.8256 46.2648C42.3664 46.176 41.9461 46.0931 41.5649 46.0159C41.1832 45.9387 40.8762 45.8417 40.6441 45.7257C40.4119 45.6095 40.2958 45.4515 40.2958 45.2527C40.2958 45.1199 40.3428 44.9983 40.4369 44.8876C40.5305 44.7771 40.6883 44.6888 40.9098 44.6221C41.1308 44.556 41.4294 44.5227 41.8056 44.5227C42.3141 44.5227 42.8367 44.5948 43.3733 44.7383C43.9093 44.8821 44.4652 45.0977 45.0404 45.3854L46.2181 42.5488C45.6098 42.2059 44.9242 41.9516 44.1611 41.7855C43.3979 41.6195 42.6237 41.5366 41.8384 41.5366C40.6439 41.5366 39.6456 41.7138 38.8441 42.0677C38.0422 42.4217 37.4393 42.8942 37.0358 43.4858C36.632 44.0774 36.4302 44.7332 36.4302 45.4515C36.4302 46.0715 36.5464 46.5879 36.7787 47.0028C37.0109 47.4172 37.3179 47.7519 37.6993 48.0064C38.081 48.2608 38.5012 48.4653 38.9602 48.6202C39.4191 48.7752 39.8752 48.8993 40.3287 48.9933C40.7821 49.0876 41.1998 49.1761 41.5814 49.2588C41.9629 49.3416 42.2697 49.4441 42.502 49.5658C42.7342 49.6874 42.8503 49.8534 42.8503 50.0636C42.8503 50.1963 42.8006 50.3099 42.7012 50.4039C42.6018 50.4978 42.4439 50.5694 42.2284 50.6194C42.0126 50.669 41.7167 50.6941 41.3409 50.6941C40.6993 50.6941 40.0385 50.5972 39.3584 50.4039C38.6782 50.2105 38.0615 49.953 37.5085 49.6326L36.2478 52.4859C36.8339 52.8399 37.5806 53.1276 38.4874 53.3486C39.3941 53.5697 40.3342 53.6804 41.3076 53.6804C42.513 53.6804 43.514 53.5001 44.3103 53.1412C45.1067 52.7818 45.7064 52.3062 46.1103 51.7146C46.514 51.1231 46.7159 50.4732 46.7159 49.7649C46.7159 49.1572 46.5997 48.6483 46.3676 48.2389C46.1352 47.83 45.8282 47.4984 45.4466 47.2433Z" fill="#BC2330"/>
<path d="M51.9741 43.627H55.8229V53.4147H57.9794V43.627H61.8282V41.8022H51.9741V43.627Z" fill="white"/>
<path d="M70.8773 49.5413C71.6129 49.2152 72.1797 48.7447 72.5778 48.1313C72.9758 47.5175 73.175 46.785 73.175 45.9327C73.175 45.0815 72.9758 44.3461 72.5778 43.7266C72.1797 43.1072 71.6128 42.6316 70.8773 42.3C70.1417 41.9679 69.2599 41.8022 68.2314 41.8022H63.4536V53.4147H65.6102V50.0304H68.2312C68.3863 50.0304 68.5316 50.0193 68.6802 50.012L71.0514 53.4149H73.3742L70.7044 49.6052C70.761 49.5827 70.8223 49.5657 70.8773 49.5413ZM70.2801 44.2244C70.7612 44.6223 71.0017 45.1922 71.0017 45.9327C71.0017 46.6627 70.7612 47.2326 70.2801 47.6415C69.7991 48.051 69.0829 48.2553 68.1318 48.2553H65.6102V43.627H68.1318C69.0829 43.6272 69.7991 43.8262 70.2801 44.2244Z" fill="white"/>
<path d="M79.1637 41.8022L73.938 53.4147H76.161L77.311 50.727H83.119L84.2733 53.4147H86.5297L81.2872 41.8022H79.1637ZM78.0351 49.0348L80.2097 43.9528L82.3923 49.0348H78.0351Z" fill="white"/>
<path d="M90.1624 41.8022H88.0059V53.4147H90.1624V41.8022Z" fill="white"/>
<path d="M101.476 49.6644L95.0725 41.8022H93.2976V53.4147H95.4376V45.5525L101.841 53.4147H103.616V41.8022H101.476V49.6644Z" fill="white"/>
<path d="M108.892 48.4048H114.499V46.6299H108.892V43.6105H115.213V41.8022H106.735V53.4147H115.445V51.6065H108.892V48.4048Z" fill="white"/>
<path d="M127.77 53.4149L125.101 49.6052C125.157 49.5828 125.219 49.5657 125.274 49.5413C126.009 49.2152 126.576 48.7447 126.974 48.1313C127.372 47.5175 127.571 46.785 127.571 45.9327C127.571 45.0815 127.372 44.3461 126.974 43.7266C126.576 43.1072 126.009 42.6316 125.274 42.3C124.538 41.9679 123.656 41.8022 122.628 41.8022H117.85V53.4147H120.006V50.0304H122.627C122.783 50.0304 122.928 50.0193 123.076 50.012L125.448 53.4149H127.77ZM124.676 44.2244C125.157 44.6223 125.398 45.1922 125.398 45.9327C125.398 46.6627 125.157 47.2326 124.676 47.6415C124.195 48.051 123.479 48.2553 122.528 48.2553H120.006V43.627H122.528C123.479 43.6272 124.195 43.8262 124.676 44.2244Z" fill="white"/>
<path d="M21.0609 36.802L10.9297 15.0263C10.9297 15.0263 35.2696 12.546 60.9129 33.3128C60.9129 33.3128 31.8646 17.99 15.659 18.5575L21.0609 36.802Z" fill="white"/>
<path d="M27.7029 14.0804V7.52246C27.7029 7.52246 57.5289 18.9357 61.8798 29.8446C61.8796 29.8446 41.5123 15.0893 27.7029 14.0804Z" fill="white"/>
<path d="M41.2812 10.0238V3.84424C41.2812 3.84424 57.8442 12.3067 62.132 25.8681C62.1322 25.868 52.3058 13.6284 41.2812 10.0238Z" fill="white"/>
<path d="M106.71 36.802L116.841 15.0263C116.841 15.0263 92.5012 12.546 66.8579 33.3128C66.8579 33.3128 95.9062 17.99 112.112 18.5575L106.71 36.802Z" fill="white"/>
<path d="M100.068 14.0804V7.52246C100.068 7.52246 70.2421 18.9357 65.8911 29.8446C65.8911 29.8446 86.2584 15.0893 100.068 14.0804Z" fill="white"/>
<path d="M86.4897 10.0238V3.84424C86.4897 3.84424 69.9267 12.3067 65.6389 25.8681C65.6389 25.868 75.4652 13.6284 86.4897 10.0238Z" fill="white"/>
<path d="M63.8855 7.68846C66.0086 7.68846 67.7297 5.96734 67.7297 3.84423C67.7297 1.72112 66.0086 0 63.8855 0C61.7624 0 60.0413 1.72112 60.0413 3.84423C60.0413 5.96734 61.7624 7.68846 63.8855 7.68846Z" fill="#BC2330"/>
<path d="M26.1643 59.6088C26.31 59.467 26.4824 59.3568 26.6814 59.2778C26.8802 59.199 27.096 59.1596 27.3285 59.1596C27.553 59.1596 27.7639 59.2001 27.9609 59.2809C28.1579 59.3617 28.3352 59.4848 28.4927 59.6503L28.8769 59.278C28.6877 59.0651 28.4581 58.9047 28.1883 58.7964C27.9184 58.688 27.6238 58.6338 27.3048 58.6338C26.9895 58.6338 26.6991 58.686 26.433 58.7904C26.167 58.8947 25.9356 59.0426 25.7386 59.2336C25.5416 59.4247 25.3879 59.6483 25.2776 59.9043C25.1672 60.1605 25.1121 60.4422 25.1121 60.7495C25.1121 61.0569 25.1672 61.3386 25.2776 61.5948C25.3877 61.8509 25.5405 62.0745 25.7355 62.2655C25.9305 62.4567 26.161 62.6044 26.427 62.7087C26.6931 62.813 26.9835 62.8653 27.2986 62.8653C27.6217 62.8653 27.9183 62.8101 28.1881 62.6998C28.4579 62.5896 28.6875 62.4279 28.8767 62.2151L28.4925 61.8427C28.335 62.0123 28.1577 62.1374 27.9607 62.218C27.7637 62.2989 27.5528 62.3393 27.3283 62.3393C27.0958 62.3393 26.88 62.2999 26.6812 62.2211C26.4822 62.1423 26.3098 62.0319 26.1641 61.8901C26.0183 61.7482 25.905 61.5798 25.8242 61.3848C25.7433 61.1898 25.7031 60.9781 25.7031 60.7494C25.7031 60.5209 25.7433 60.3091 25.8242 60.1141C25.9052 59.9191 26.0185 59.7507 26.1643 59.6088Z" fill="#6B6B6B"/>
<path d="M31.9886 59.8037C31.7936 59.7052 31.568 59.656 31.312 59.656C31.0283 59.656 30.7801 59.7132 30.5673 59.8273C30.4202 59.9064 30.3011 60.0087 30.2068 60.131V58.4326H29.6394V62.8178H30.2068V61.2044C30.2068 60.9761 30.2472 60.7849 30.3278 60.6312C30.4085 60.4775 30.5239 60.3614 30.6736 60.2825C30.8233 60.2037 30.9988 60.1644 31.1996 60.1644C31.4675 60.1644 31.6754 60.2412 31.8231 60.3949C31.9707 60.5486 32.0447 60.7771 32.0447 61.0804V62.8178H32.612V61.0152C32.612 60.7079 32.5567 60.4539 32.4465 60.2529C32.3362 60.0518 32.1836 59.9022 31.9886 59.8037Z" fill="#6B6B6B"/>
<path d="M36.0161 61.3051C36.0161 61.5258 35.9766 61.714 35.8979 61.8695C35.8191 62.0252 35.7068 62.1434 35.5611 62.2242C35.4153 62.3051 35.2439 62.3455 35.0469 62.3455C34.7789 62.3455 34.5711 62.2686 34.4235 62.115C34.2758 61.9615 34.2019 61.7308 34.2019 61.4236V59.686H33.6345V61.4886C33.6345 61.796 33.6908 62.0512 33.8029 62.2541C33.9153 62.4571 34.0728 62.6077 34.2758 62.7062C34.4786 62.8047 34.7141 62.854 34.9821 62.854C35.2381 62.854 35.4686 62.7969 35.6734 62.6827C35.826 62.5975 35.95 62.486 36.0458 62.3486V62.8185H36.5837V59.6862H36.0163V61.3051H36.0161Z" fill="#6B6B6B"/>
<path d="M38.7987 62.1888L37.7063 59.6855H37.1152L38.4974 62.81L38.3976 63.0307C38.3188 63.2119 38.2341 63.338 38.1436 63.4089C38.0529 63.4799 37.9386 63.5152 37.8008 63.5152C37.6944 63.5152 37.5939 63.4955 37.4994 63.4562C37.4049 63.4167 37.3181 63.3595 37.2394 63.2849L36.9971 63.7104C37.0996 63.8049 37.2216 63.8768 37.3634 63.9262C37.5053 63.9753 37.6511 64.0001 37.8008 64.0001C37.9623 64.0001 38.1101 63.9735 38.2439 63.9203C38.3778 63.8672 38.501 63.7776 38.6134 63.6514C38.7257 63.5252 38.8271 63.3521 38.9178 63.1314L40.4367 59.6857H39.8812L38.7987 62.1888Z" fill="#6B6B6B"/>
<path d="M42.1565 58.7771L42.7002 59.2301H43.2144L42.4284 58.4619H41.8847L41.0986 59.2301H41.6128L42.1565 58.7771Z" fill="#6B6B6B"/>
<path d="M42.9663 59.8571C42.7338 59.7233 42.4659 59.6562 42.1626 59.6562C41.8631 59.6562 41.5941 59.7242 41.3558 59.8602C41.1173 59.9962 40.9303 60.1843 40.7943 60.4246C40.6582 60.665 40.5903 60.9408 40.5903 61.252C40.5903 61.5633 40.6603 61.839 40.8001 62.0794C40.9399 62.3197 41.1369 62.5089 41.3911 62.6467C41.6451 62.7847 41.9397 62.8537 42.2746 62.8537C42.5346 62.8537 42.77 62.8104 42.9808 62.7236C43.1917 62.6369 43.3679 62.5109 43.5098 62.3454L43.1966 61.979C43.0823 62.105 42.9493 62.1997 42.7977 62.2627C42.646 62.3257 42.4776 62.3572 42.2924 62.3572C42.0679 62.3572 41.8687 62.3121 41.6954 62.2212C41.522 62.1305 41.3871 62.0036 41.2906 61.8401C41.2194 61.7196 41.175 61.5865 41.1562 61.4412H43.699C43.7028 61.4137 43.7059 61.384 43.7079 61.3525C43.7099 61.321 43.711 61.2933 43.711 61.2698C43.711 60.9468 43.6449 60.6641 43.5129 60.4217C43.3809 60.1792 43.1986 59.9911 42.9663 59.8571ZM41.6366 60.2679C41.7902 60.1792 41.9654 60.1349 42.1626 60.1349C42.3634 60.1349 42.5398 60.1792 42.6915 60.2679C42.8432 60.3565 42.9625 60.4796 43.0491 60.6373C43.1147 60.7567 43.1542 60.8889 43.1678 61.0331H41.155C41.1715 60.8897 41.2118 60.7586 41.2762 60.64C41.3625 60.4805 41.4829 60.3565 41.6366 60.2679Z" fill="#6B6B6B"/>
<path d="M46.8462 59.8039C46.6512 59.7054 46.4256 59.6562 46.1696 59.6562C45.886 59.6562 45.6378 59.7134 45.4249 59.8276C45.2662 59.9128 45.1382 60.0237 45.0408 60.1593V59.6856H44.4971V62.8179H45.0644V61.2045C45.0644 60.9761 45.1048 60.785 45.1855 60.6313C45.2662 60.4776 45.3816 60.3614 45.5313 60.2826C45.6809 60.2038 45.8563 60.1644 46.0573 60.1644C46.3251 60.1644 46.5331 60.2413 46.6807 60.3949C46.8284 60.5486 46.9023 60.7771 46.9023 61.0805V62.8179H47.4697V61.0153C47.4697 60.7079 47.4143 60.4539 47.3042 60.2529C47.1938 60.0521 47.0413 59.9024 46.8462 59.8039Z" fill="#6B6B6B"/>
<path d="M50.9121 59.609C51.0598 59.4672 51.2352 59.357 51.4382 59.278C51.641 59.1991 51.8608 59.1598 52.0971 59.1598C52.3294 59.1598 52.5452 59.1982 52.7442 59.2751C52.9431 59.3519 53.1273 59.4732 53.2968 59.6385L53.6634 59.2722C53.4742 59.0593 53.2437 58.8998 52.9718 58.7935C52.7 58.6871 52.4005 58.6338 52.0734 58.6338C51.7504 58.6338 51.4547 58.686 51.1869 58.7904C50.9189 58.8947 50.6855 59.0426 50.4866 59.2336C50.2876 59.4247 50.133 59.6483 50.0227 59.9043C49.9123 60.1605 49.8572 60.4422 49.8572 60.7495C49.8572 61.0569 49.9123 61.3386 50.0227 61.5948C50.1328 61.8509 50.2867 62.0745 50.4837 62.2655C50.6807 62.4567 50.9132 62.6044 51.1811 62.7087C51.4489 62.813 51.7426 62.8653 52.0616 62.8653C52.3531 62.8653 52.6357 62.8211 52.9097 62.7324C53.1836 62.6437 53.4228 62.5128 53.6279 62.3393V60.7259H53.0605V62.0698C52.9538 62.1399 52.8429 62.1963 52.7266 62.2359C52.5235 62.3049 52.3118 62.3393 52.0911 62.3393C51.8548 62.3393 51.6361 62.2999 51.4351 62.2211C51.2341 62.1423 51.0598 62.031 50.912 61.8872C50.7643 61.7433 50.65 61.574 50.5691 61.379C50.4883 61.184 50.448 60.9742 50.448 60.7495C50.448 60.521 50.4883 60.3093 50.5691 60.1143C50.6501 59.9193 50.7645 59.7508 50.9121 59.609Z" fill="#6B6B6B"/>
<path d="M54.9577 58.3442C54.8474 58.3442 54.7558 58.3797 54.683 58.4506C54.61 58.5216 54.5737 58.6103 54.5737 58.7166C54.5737 58.8191 54.6101 58.9058 54.683 58.9766C54.7558 59.0476 54.8474 59.0829 54.9577 59.0829C55.0721 59.0829 55.1646 59.0465 55.2356 58.9737C55.3064 58.9009 55.3419 58.8111 55.3419 58.7048C55.3419 58.6024 55.3055 58.5167 55.2327 58.4477C55.1597 58.3786 55.0681 58.3442 54.9577 58.3442Z" fill="#6B6B6B"/>
<path d="M55.2414 59.6855H54.6741V62.8179H55.2414V59.6855Z" fill="#6B6B6B"/>
<path d="M57.4634 59.6562C57.2152 59.6562 56.9778 59.6908 56.7513 59.7597C56.5246 59.8287 56.3307 59.9281 56.1692 60.0581L56.4055 60.4836C56.5275 60.3813 56.6774 60.2995 56.8547 60.2384C57.032 60.1774 57.2132 60.1468 57.3984 60.1468C57.6781 60.1468 57.888 60.2129 58.0278 60.3449C58.1677 60.4769 58.2376 60.6631 58.2376 60.9035V61.0158H57.3392C57.0279 61.0158 56.7806 61.0572 56.5974 61.14C56.4143 61.2227 56.2822 61.333 56.2014 61.471C56.1206 61.609 56.0803 61.7627 56.0803 61.9321C56.0803 62.1094 56.1277 62.2682 56.2222 62.4078C56.3167 62.5477 56.4516 62.6571 56.6269 62.7358C56.8023 62.8146 57.006 62.8541 57.2387 62.8541C57.5262 62.8541 57.7647 62.8 57.9537 62.6915C58.087 62.6152 58.1904 62.5187 58.2669 62.404V62.8186H58.8048V60.9273C58.8048 60.4978 58.6884 60.1788 58.4561 59.9698C58.2238 59.7606 57.8927 59.6562 57.4634 59.6562ZM57.8918 62.2744C57.7323 62.3689 57.5461 62.4162 57.3334 62.4162C57.1167 62.4162 56.9472 62.3698 56.825 62.2773C56.7028 62.1848 56.6419 62.0615 56.6419 61.9078C56.6419 61.774 56.691 61.6597 56.7897 61.565C56.8882 61.4705 57.0792 61.4231 57.3629 61.4231H58.2376V61.8605C58.1666 62.0418 58.0515 62.1797 57.8918 62.2744Z" fill="#6B6B6B"/>
<path d="M64.4875 58.9407C64.1506 58.7673 63.7615 58.6807 63.3204 58.6807H61.577V60.4772H60.9683V60.9441H61.577V62.8175H63.3204C63.7615 62.8175 64.1508 62.7308 64.4875 62.5575C64.8243 62.3841 65.0863 62.1418 65.2735 61.8306C65.4607 61.5195 65.5543 61.1589 65.5543 60.7491C65.5543 60.3394 65.4607 59.9789 65.2735 59.6675C65.0863 59.3564 64.8243 59.1142 64.4875 58.9407ZM64.7562 61.5619C64.6182 61.7964 64.4243 61.9785 64.1741 62.1085C63.9239 62.2387 63.6275 62.3035 63.2847 62.3035H62.1676V60.9441H63.3318V60.4772H62.1676V59.1949H63.2847C63.6275 59.1949 63.9239 59.2597 64.1741 59.3899C64.4243 59.5199 64.6184 59.7012 64.7562 59.9335C64.8941 60.1661 64.9631 60.4379 64.9631 60.7491C64.9633 61.0564 64.8942 61.3274 64.7562 61.5619Z" fill="#6B6B6B"/>
<path d="M67.5164 59.6562C67.2682 59.6562 67.0308 59.6908 66.8043 59.7597C66.5776 59.8287 66.3837 59.9281 66.2222 60.0581L66.4585 60.4836C66.5805 60.3813 66.7303 60.2995 66.9077 60.2384C67.085 60.1774 67.2662 60.1468 67.4514 60.1468C67.731 60.1468 67.941 60.2129 68.0808 60.3449C68.2207 60.4769 68.2906 60.6631 68.2906 60.9035V61.0158H67.3922C67.0808 61.0158 66.8336 61.0572 66.6504 61.14C66.4672 61.2227 66.3352 61.333 66.2544 61.471C66.1735 61.609 66.1333 61.7627 66.1333 61.9321C66.1333 62.1094 66.1806 62.2682 66.2751 62.4078C66.3696 62.5477 66.5046 62.6571 66.6799 62.7358C66.8552 62.8146 67.059 62.8541 67.2917 62.8541C67.5792 62.8541 67.8177 62.8 68.0067 62.6915C68.14 62.6152 68.2434 62.5187 68.3199 62.404V62.8186H68.8577V60.9273C68.8577 60.4978 68.7414 60.1788 68.5091 59.9698C68.2767 59.7606 67.9457 59.6562 67.5164 59.6562ZM67.9448 62.2744C67.7853 62.3689 67.599 62.4162 67.3864 62.4162C67.1697 62.4162 67.0002 62.3698 66.878 62.2773C66.7558 62.1848 66.6948 62.0615 66.6948 61.9078C66.6948 61.774 66.744 61.6597 66.8427 61.565C66.9412 61.4705 67.1322 61.4231 67.4159 61.4231H68.2906V61.8605C68.2196 62.0418 68.1045 62.1797 67.9448 62.2744Z" fill="#6B6B6B"/>
<path d="M68.0008 59.2301L67.1971 58.4619H66.4761L67.469 59.2301H68.0008Z" fill="#6B6B6B"/>
<path d="M72.0877 59.8597C71.8414 59.7237 71.5626 59.6558 71.2514 59.6558C70.9362 59.6558 70.6566 59.7237 70.4122 59.8597C70.1679 59.9957 69.9749 60.1838 69.833 60.4241C69.6912 60.6645 69.6204 60.9403 69.6204 61.2515C69.6204 61.5589 69.6912 61.8336 69.833 62.076C69.9749 62.3183 70.1679 62.5084 70.4122 62.6462C70.6566 62.7842 70.9362 62.8533 71.2514 62.8533C71.5626 62.8533 71.8414 62.7842 72.0877 62.6462C72.3339 62.5084 72.5271 62.3192 72.6669 62.0789C72.8067 61.8385 72.8767 61.5629 72.8767 61.2515C72.8767 60.9363 72.8066 60.6596 72.6669 60.421C72.5269 60.1829 72.3339 59.9957 72.0877 59.8597ZM72.1675 61.8338C72.0768 62.0013 71.9517 62.1302 71.7922 62.2209C71.6327 62.3116 71.4524 62.3569 71.2514 62.3569C71.0506 62.3569 70.8711 62.3117 70.7136 62.2209C70.5559 62.1302 70.4299 62.0013 70.3354 61.8338C70.2407 61.6663 70.1935 61.4724 70.1935 61.2517C70.1935 61.027 70.2409 60.8331 70.3354 60.6696C70.4299 60.5061 70.5559 60.379 70.7136 60.2883C70.8711 60.1976 71.0504 60.1523 71.2514 60.1523C71.4524 60.1523 71.6327 60.1976 71.7922 60.2883C71.9519 60.379 72.0768 60.5061 72.1675 60.6696C72.2581 60.8331 72.3035 61.027 72.3035 61.2517C72.3033 61.4722 72.258 61.6663 72.1675 61.8338Z" fill="#6B6B6B"/>
<path d="M74.7383 59.1949H76.1567V62.8177H76.7417V59.1949H78.1601V58.6807H74.7383V59.1949Z" fill="#6B6B6B"/>
<path d="M79.7262 63.3735C79.6435 63.3735 79.5725 63.4021 79.5135 63.4593C79.4543 63.5163 79.4248 63.5902 79.4248 63.6809C79.4248 63.7676 79.4543 63.8384 79.5135 63.8936C79.5725 63.9487 79.6435 63.9762 79.7262 63.9762C79.8088 63.9762 79.8798 63.9487 79.939 63.8936C79.998 63.8384 80.0277 63.7676 80.0277 63.6809C80.0277 63.5902 79.9982 63.5163 79.939 63.4593C79.88 63.4021 79.809 63.3735 79.7262 63.3735Z" fill="#6B6B6B"/>
<path d="M79.6968 59.6562C79.4486 59.6562 79.2112 59.6908 78.9847 59.7597C78.758 59.8287 78.5641 59.9281 78.4026 60.0581L78.6389 60.4836C78.7609 60.3813 78.9108 60.2995 79.0881 60.2384C79.2654 60.1774 79.4466 60.1468 79.6318 60.1468C79.9115 60.1468 80.1214 60.2129 80.2612 60.3449C80.4011 60.4769 80.471 60.6631 80.471 60.9035V61.0158H79.5726C79.2613 61.0158 79.014 61.0572 78.8308 61.14C78.6477 61.2227 78.5156 61.333 78.4348 61.471C78.354 61.609 78.3137 61.7627 78.3137 61.9321C78.3137 62.1094 78.3611 62.2682 78.4556 62.4078C78.5501 62.5477 78.685 62.6571 78.8603 62.7358C79.0357 62.8146 79.2394 62.8541 79.4721 62.8541C79.7596 62.8541 79.9979 62.8 80.1871 62.6915C80.3204 62.6152 80.4238 62.5187 80.5003 62.404V62.8186H81.0382V60.9273C81.0382 60.4978 80.9218 60.1788 80.6895 59.9698C80.4572 59.7606 80.1263 59.6562 79.6968 59.6562ZM80.1252 62.2744C79.9657 62.3689 79.7795 62.4162 79.5668 62.4162C79.3501 62.4162 79.1806 62.3698 79.0584 62.2773C78.9362 62.1848 78.8752 62.0615 78.8752 61.9078C78.8752 61.774 78.9244 61.6597 79.0231 61.565C79.1216 61.4705 79.3126 61.4231 79.5963 61.4231H80.471V61.8605C80.4002 62.0418 80.2849 62.1797 80.1252 62.2744Z" fill="#6B6B6B"/>
<path d="M84.2681 59.8597C84.0218 59.7237 83.743 59.6558 83.4318 59.6558C83.1167 59.6558 82.8368 59.7237 82.5926 59.8597C82.3485 59.9957 82.1553 60.1838 82.0134 60.4241C81.8716 60.6645 81.8008 60.9403 81.8008 61.2515C81.8008 61.5589 81.8716 61.8336 82.0134 62.076C82.1553 62.3183 82.3483 62.5084 82.5926 62.6462C82.837 62.7842 83.1167 62.8533 83.4318 62.8533C83.743 62.8533 84.0218 62.7842 84.2681 62.6462C84.5143 62.5084 84.7075 62.3192 84.8473 62.0789C84.9872 61.8385 85.0571 61.5629 85.0571 61.2515C85.0571 60.9363 84.987 60.6596 84.8473 60.421C84.7073 60.1829 84.5143 59.9957 84.2681 59.8597ZM84.3479 61.8338C84.2572 62.0013 84.1321 62.1302 83.9726 62.2209C83.8131 62.3116 83.6329 62.3569 83.4318 62.3569C83.231 62.3569 83.0515 62.3117 82.894 62.2209C82.7363 62.1302 82.6103 62.0013 82.5158 61.8338C82.4211 61.6663 82.374 61.4724 82.374 61.2517C82.374 61.027 82.4213 60.8331 82.5158 60.6696C82.6103 60.5061 82.7363 60.379 82.894 60.2883C83.0515 60.1976 83.2308 60.1523 83.4318 60.1523C83.6329 60.1523 83.8131 60.1976 83.9726 60.2883C84.1323 60.379 84.2572 60.5061 84.3479 60.6696C84.4386 60.8331 84.4839 61.027 84.4839 61.2517C84.4837 61.4722 84.4384 61.6663 84.3479 61.8338Z" fill="#6B6B6B"/>
<path d="M88.1067 58.6807H87.5156V62.8177H88.1067V58.6807Z" fill="#6B6B6B"/>
<path d="M89.9387 60.9678H92.0131V60.4654H89.9387V59.1949H92.2673V58.6807H89.3477V62.8177H92.3499V62.3035H89.9387V60.9678Z" fill="#6B6B6B"/>
<path d="M93.8984 58.6807H93.3074V62.8177H96.1381V62.3035H93.8984V58.6807Z" fill="#6B6B6B"/>
<path d="M95.8372 59.1949H97.2554V62.8177H97.8406V59.1949H99.259V58.6807H95.8372V59.1949Z" fill="#6B6B6B"/>
<path d="M102.521 61.1576C102.431 61.0198 102.311 60.9094 102.164 60.8266C102.016 60.7439 101.852 60.6769 101.673 60.6257C101.494 60.5746 101.315 60.5281 101.138 60.4868C100.961 60.4455 100.798 60.3992 100.651 60.3479C100.503 60.2967 100.382 60.2277 100.29 60.141C100.197 60.0544 100.151 59.9382 100.151 59.7924C100.151 59.6704 100.185 59.56 100.254 59.4613C100.323 59.3628 100.433 59.2842 100.582 59.225C100.732 59.1658 100.923 59.1363 101.156 59.1363C101.341 59.1363 101.532 59.1629 101.729 59.2161C101.926 59.2692 102.113 59.355 102.291 59.4732L102.486 59.0003C102.312 58.8821 102.108 58.7917 101.871 58.7285C101.635 58.6655 101.396 58.6338 101.156 58.6338C100.793 58.6338 100.495 58.688 100.261 58.7964C100.026 58.9047 99.8528 59.0486 99.7407 59.2277C99.6283 59.4071 99.5722 59.603 99.5722 59.8158C99.5722 60.0365 99.6176 60.2168 99.7083 60.3566C99.7989 60.4965 99.918 60.6079 100.066 60.6906C100.214 60.7732 100.377 60.8413 100.556 60.8945C100.736 60.9476 100.914 60.9941 101.091 61.0334C101.269 61.0729 101.431 61.1192 101.579 61.1723C101.727 61.2255 101.847 61.2956 101.939 61.3821C102.032 61.4689 102.078 61.5831 102.078 61.7249C102.078 61.8471 102.043 61.9565 101.972 62.0529C101.901 62.1494 101.791 62.2253 101.641 62.2805C101.491 62.3358 101.296 62.3631 101.056 62.3631C100.792 62.3631 100.538 62.318 100.293 62.2273C100.049 62.1366 99.8483 62.0225 99.6906 61.8844L99.4719 62.3455C99.6374 62.4991 99.8639 62.6242 100.152 62.7207C100.439 62.8172 100.741 62.8655 101.056 62.8655C101.418 62.8655 101.719 62.8114 101.957 62.7029C102.195 62.5946 102.372 62.4509 102.486 62.2714C102.6 62.0922 102.657 61.8981 102.657 61.6893C102.657 61.4728 102.612 61.2956 102.521 61.1576Z" fill="#6B6B6B"/>
</svg>
